<?xml version="1.0" encoding="utf-8"?>
<svg xmlns="http://www.w3.org/2000/svg" xmlns:xlink="http://www.w3.org/1999/xlink" width="1290" height="181"><g><rect x="26" y="16" width="111" height="31" style="stroke:rgb(0,0,0); stroke-width:1; fill:rgb(128,255,255)"/><a xlink:href="text.html#2" target="text"><text x="81" y="37" text-anchor="middle" style="font-size:9pt; fill:rgb(0,0,0); font-family:Meiryo; ">ここいろの枝</text></a></g><g><rect x="44" y="136" width="59" height="31" style="stroke:rgb(0,0,0); stroke-width:1; fill:none"/><a xlink:href="text.html#14" target="text"><text x="73" y="157" text-anchor="middle" style="font-size:9pt; fill:rgb(0,0,0); font-family:Meiryo; ">始まり</text></a></g><g><rect x="163" y="134" width="124" height="31" style="stroke:rgb(0,0,0); stroke-width:1; fill:none"/><a xlink:href="text.html#7" target="text"><text x="225" y="155" text-anchor="middle" style="font-size:9pt; fill:rgb(0,0,0); font-family:Meiryo; ">都と親しくなる？</text></a></g><g><rect x="368" y="127" width="217" height="40" rx="5" ry="5" style="stroke:rgb(0,0,0); stroke-width:1; fill:none"/><a xlink:href="text.html#8" target="text"><text x="476" y="138" text-anchor="middle" style="font-size:9pt; fill:rgb(0,0,0); font-family:Meiryo; "><tspan>都が炎のAFユーザを間接的に
</tspan><tspan x="476" dy="20">殺した事実をソフィから聞かない</tspan></text></a></g><g><rect x="620" y="136" width="189" height="31" rx="3" ry="3" style="stroke:rgb(0,0,0); stroke-width:1; fill:none"/><a xlink:href="text.html#10" target="text"><text x="714" y="157" text-anchor="middle" style="font-size:9pt; fill:rgb(0,0,0); font-family:Meiryo; ">恋心が都にバレて恋仲になる</text></a></g><g><rect x="367" y="61" width="216" height="40" rx="5" ry="5" style="stroke:rgb(0,0,0); stroke-width:1; fill:none"/><a xlink:href="text.html#4" target="text"><text x="475" y="72" text-anchor="middle" style="font-size:9pt; fill:rgb(0,0,0); font-family:Meiryo; "><tspan>都が炎のAFユーザを間接的に
</tspan><tspan x="475" dy="20">殺した事実をソフィから聞く</tspan></text></a></g><g><rect x="620" y="70" width="163" height="31" rx="3" ry="3" style="stroke:rgb(0,0,0); stroke-width:1; fill:none"/><a xlink:href="text.html#5" target="text"><text x="701" y="91" text-anchor="middle" style="font-size:9pt; fill:rgb(0,0,0); font-family:Meiryo; ">秘密が都にバレて仲違い</text></a></g><g><rect x="881" y="66" width="254" height="31" rx="3" ry="3" style="stroke:rgb(0,0,0); stroke-width:1; fill:none"/><a xlink:href="text.html#6" target="text"><text x="1008" y="87" text-anchor="middle" style="font-size:9pt; fill:rgb(0,0,0); font-family:Meiryo; ">都が一人で魔眼のユーザと対峙して死亡</text></a></g><g><rect x="879" y="131" width="268" height="40" rx="5" ry="5" style="stroke:rgb(0,0,0); stroke-width:1; fill:none"/><a xlink:href="text.html#11" target="text"><text x="1013" y="142" text-anchor="middle" style="font-size:9pt; fill:rgb(0,0,0); font-family:Meiryo; "><tspan>魔眼のユーザが何故か石化して発見され
</tspan><tspan x="1013" dy="20">自殺したことに</tspan></text></a></g><g><rect x="1206" y="63" width="67" height="31" rx="3" ry="3" style="stroke:rgb(0,0,0); stroke-width:1; fill:rgb(128,128,128)"/><a xlink:href="text.html#12" target="text"><text x="1239" y="84" text-anchor="middle" style="font-size:9pt; fill:rgb(0,0,0); font-family:Meiryo; ">都死亡√</text></a></g><g><rect x="1213" y="139" width="67" height="31" rx="3" ry="3" style="stroke:rgb(0,0,0); stroke-width:1; fill:rgb(128,255,128)"/><a xlink:href="text.html#13" target="text"><text x="1246" y="160" text-anchor="middle" style="font-size:9pt; fill:rgb(0,0,0); font-family:Meiryo; ">都生存√</text></a></g><g><path d="M 226 134 C 228 80 228 80 368 80" stroke="rgb(0,0,0)" fill="none" stroke-width="1"/><text x="222" y="86" style="font-size:9pt; fill:rgb(0,0,0); font-family:Meiryo; ">No</text><path d="M 368 80 L 356 75 L 356 85 z" style="fill:rgb(0,0,0); stroke:rgb(0,0,0); stroke-width:1;"/></g><g><line x1="582" y1="83" x2="621" y2="83" style="stroke:rgb(0,0,0); stroke-width:1;"/><path d="M 621 83 L 609 78 L 609 88 z" style="fill:rgb(0,0,0); stroke:rgb(0,0,0); stroke-width:1;"/></g><g><line x1="781" y1="83" x2="882" y2="83" style="stroke:rgb(0,0,0); stroke-width:1;"/><path d="M 882 83 L 870 78 L 870 88 z" style="fill:rgb(0,0,0); stroke:rgb(0,0,0); stroke-width:1;"/></g><g><line x1="286" y1="148" x2="368" y2="148" style="stroke:rgb(0,0,0); stroke-width:1;"/><text x="318" y="154" style="font-size:9pt; fill:rgb(0,0,0); font-family:Meiryo; ">Yes</text><path d="M 368 148 L 356 143 L 356 153 z" style="fill:rgb(0,0,0); stroke:rgb(0,0,0); stroke-width:1;"/></g><g><line x1="584" y1="149" x2="621" y2="149" style="stroke:rgb(0,0,0); stroke-width:1;"/><path d="M 621 149 L 609 144 L 609 154 z" style="fill:rgb(0,0,0); stroke:rgb(0,0,0); stroke-width:1;"/></g><g><line x1="807" y1="151" x2="881" y2="151" style="stroke:rgb(0,0,0); stroke-width:1;"/><path d="M 881 151 L 869 146 L 869 156 z" style="fill:rgb(0,0,0); stroke:rgb(0,0,0); stroke-width:1;"/></g><g><line x1="1146" y1="153" x2="1213" y2="153" style="stroke:rgb(0,0,0); stroke-width:1;"/><path d="M 1213 153 L 1201 148 L 1201 158 z" style="fill:rgb(0,0,0); stroke:rgb(0,0,0); stroke-width:1;"/></g><g><line x1="1133" y1="79" x2="1206" y2="79" style="stroke:rgb(0,0,0); stroke-width:1;"/><path d="M 1206 79 L 1194 74 L 1194 84 z" style="fill:rgb(0,0,0); stroke:rgb(0,0,0); stroke-width:1;"/></g><g><line x1="102" y1="150" x2="164" y2="150" style="stroke:rgb(0,0,0); stroke-width:1;"/><path d="M 164 150 L 152 145 L 152 155 z" style="fill:rgb(0,0,0); stroke:rgb(0,0,0); stroke-width:1;"/></g></svg>
